<?xml version="1.0" encoding="utf-8"?>
<!-- Generator: Adobe Illustrator 16.0.0, SVG Export Plug-In . SVG Version: 6.00 Build 0)  -->
<!DOCTYPE svg PUBLIC "-//W3C//DTD SVG 1.1//EN" "http://www.w3.org/Graphics/SVG/1.1/DTD/svg11.dtd">
<svg version="1.1" id="Layer_1" xmlns="http://www.w3.org/2000/svg" xmlns:xlink="http://www.w3.org/1999/xlink" x="0px" y="0px"
	 width="212.039px" height="49.592px" viewBox="0 0 212.039 49.592" enable-background="new 0 0 212.039 49.592"
	 xml:space="preserve">
<g>
	<g>
		<circle fill="#9FCFF4" cx="5.221" cy="44.368" r="5.224"/>
		<circle fill="#9FCFF4" cx="20.729" cy="44.368" r="5.224"/>
		<circle fill="#9FCFF4" cx="36.236" cy="44.368" r="5.224"/>
		<path fill="#9FCFF4" d="M51.742,39.144c2.885,0,5.221,2.338,5.221,5.222c0,2.886-2.336,5.228-5.221,5.228
			c-2.885,0-5.223-2.342-5.223-5.228C46.519,41.481,48.857,39.144,51.742,39.144z"/>
		<circle fill="#9FCFF4" cx="67.25" cy="44.368" r="5.224"/>
		<circle fill="#9FCFF4" cx="82.758" cy="44.368" r="5.224"/>
		<path fill="#9FCFF4" d="M113.771,39.144c2.885,0,5.225,2.338,5.225,5.222c0,2.886-2.338,5.228-5.225,5.228
			c-2.881,0-5.221-2.342-5.221-5.228C108.55,41.481,110.89,39.144,113.771,39.144z"/>
		<path fill="#9FCFF4" d="M98.265,39.144c2.887,0,5.221,2.338,5.221,5.222c0,2.886-2.334,5.228-5.221,5.228
			c-2.885,0-5.223-2.342-5.223-5.228C93.042,41.481,95.38,39.144,98.265,39.144z"/>
		<path fill="#9FCFF4" d="M129.281,39.144c2.885,0,5.223,2.338,5.223,5.222c0,2.886-2.338,5.228-5.223,5.228
			s-5.225-2.342-5.225-5.228C124.056,41.481,126.396,39.144,129.281,39.144z"/>
		<circle fill="#9FCFF4" cx="144.789" cy="44.368" r="5.224"/>
		<circle fill="#9FCFF4" cx="160.296" cy="44.368" r="5.224"/>
		<circle fill="#9FCFF4" cx="175.802" cy="44.368" r="5.224"/>
		<circle fill="#9FCFF4" cx="191.31" cy="44.368" r="5.224"/>
		<circle fill="#9FCFF4" cx="206.815" cy="44.368" r="5.224"/>
	</g>
	<g>
		<path fill="#9FCFF4" d="M5.221,19.571c2.885,0,5.221,2.341,5.221,5.222c0,2.887-2.336,5.229-5.221,5.229
			C2.336,30.021,0,27.679,0,24.792C0,21.911,2.336,19.571,5.221,19.571z"/>
		<path fill="#9FCFF4" d="M20.729,19.571c2.885,0,5.223,2.341,5.223,5.222c0,2.887-2.338,5.229-5.223,5.229
			s-5.223-2.342-5.223-5.229C15.506,21.911,17.844,19.571,20.729,19.571z"/>
		<path fill="#9FCFF4" d="M36.236,19.571c2.885,0,5.223,2.341,5.223,5.222c0,2.887-2.338,5.229-5.223,5.229
			c-2.885,0-5.225-2.342-5.225-5.229C31.012,21.911,33.351,19.571,36.236,19.571z"/>
		<path fill="#9FCFF4" d="M51.742,19.571c2.885,0,5.221,2.341,5.221,5.222c0,2.887-2.336,5.229-5.221,5.229
			c-2.885,0-5.223-2.342-5.223-5.229C46.519,21.911,48.857,19.571,51.742,19.571z"/>
		<path fill="#9FCFF4" d="M67.25,19.571c2.885,0,5.225,2.341,5.225,5.222c0,2.887-2.34,5.229-5.225,5.229s-5.221-2.342-5.221-5.229
			C62.029,21.911,64.365,19.571,67.25,19.571z"/>
		<path fill="#9FCFF4" d="M82.758,19.571c2.883,0,5.223,2.341,5.223,5.222c0,2.887-2.34,5.229-5.223,5.229
			c-2.885,0-5.221-2.342-5.221-5.229C77.537,21.911,79.873,19.571,82.758,19.571z"/>
		<path fill="#9FCFF4" d="M113.771,19.571c2.885,0,5.225,2.341,5.225,5.222c0,2.887-2.338,5.229-5.225,5.229
			c-2.881,0-5.221-2.342-5.221-5.229C108.55,21.911,110.89,19.571,113.771,19.571z"/>
		<path fill="#9FCFF4" d="M98.265,19.571c2.887,0,5.221,2.341,5.221,5.222c0,2.887-2.334,5.229-5.221,5.229
			c-2.885,0-5.223-2.342-5.223-5.229C93.042,21.911,95.38,19.571,98.265,19.571z"/>
		<path fill="#9FCFF4" d="M129.281,19.571c2.885,0,5.223,2.341,5.223,5.222c0,2.887-2.338,5.229-5.223,5.229
			s-5.225-2.342-5.225-5.229C124.056,21.911,126.396,19.571,129.281,19.571z"/>
		<path fill="#9FCFF4" d="M144.789,19.571c2.883,0,5.225,2.341,5.225,5.222c0,2.887-2.342,5.229-5.225,5.229
			c-2.888,0-5.222-2.342-5.222-5.229C139.567,21.911,141.901,19.571,144.789,19.571z"/>
		<path fill="#9FCFF4" d="M160.296,19.571c2.885,0,5.221,2.341,5.221,5.222c0,2.887-2.336,5.229-5.221,5.229
			s-5.224-2.342-5.224-5.229C155.073,21.911,157.412,19.571,160.296,19.571z"/>
		<path fill="#9FCFF4" d="M175.802,19.571c2.885,0,5.223,2.341,5.223,5.222c0,2.887-2.338,5.229-5.223,5.229
			c-2.887,0-5.221-2.342-5.221-5.229C170.582,21.911,172.916,19.571,175.802,19.571z"/>
		<path fill="#9FCFF4" d="M191.31,19.571c2.885,0,5.221,2.341,5.221,5.222c0,2.887-2.336,5.229-5.221,5.229
			s-5.223-2.342-5.223-5.229C186.087,21.911,188.425,19.571,191.31,19.571z"/>
		<path fill="#9FCFF4" d="M206.815,19.571c2.888,0,5.224,2.341,5.224,5.222c0,2.887-2.336,5.229-5.224,5.229
			c-2.883,0-5.224-2.342-5.224-5.229C201.591,21.911,203.932,19.571,206.815,19.571z"/>
	</g>
	<g>
		<circle fill="#9FCFF4" cx="5.221" cy="5.225" r="5.225"/>
		<circle fill="#9FCFF4" cx="20.729" cy="5.225" r="5.225"/>
		<circle fill="#9FCFF4" cx="36.236" cy="5.225" r="5.225"/>
		<circle fill="#9FCFF4" cx="51.742" cy="5.225" r="5.225"/>
		<circle fill="#9FCFF4" cx="67.25" cy="5.225" r="5.225"/>
		<circle fill="#9FCFF4" cx="82.758" cy="5.225" r="5.225"/>
		<path fill="#9FCFF4" d="M113.771,0c2.885,0,5.225,2.34,5.225,5.223c0,2.885-2.338,5.227-5.225,5.227
			c-2.881,0-5.221-2.342-5.221-5.227C108.55,2.34,110.89,0,113.771,0z"/>
		<path fill="#9FCFF4" d="M98.265,0c2.887,0,5.221,2.34,5.221,5.223c0,2.885-2.334,5.227-5.221,5.227
			c-2.885,0-5.223-2.342-5.223-5.227C93.042,2.34,95.38,0,98.265,0z"/>
		<circle fill="#9FCFF4" cx="129.281" cy="5.225" r="5.225"/>
		<circle fill="#9FCFF4" cx="144.789" cy="5.225" r="5.225"/>
		<circle fill="#9FCFF4" cx="160.296" cy="5.225" r="5.225"/>
		<circle fill="#9FCFF4" cx="175.802" cy="5.225" r="5.225"/>
		<circle fill="#9FCFF4" cx="191.31" cy="5.225" r="5.225"/>
		<circle fill="#9FCFF4" cx="206.815" cy="5.225" r="5.225"/>
	</g>
</g>
</svg>
